<svg xmlns="http://www.w3.org/2000/svg" viewBox="0 0 256 256" role="img" aria-labelledby="title desc">
  <title id="title">LG TV Display Switcher icon</title>
  <desc id="desc">A monitor and TV switching mark with a wireless power accent.</desc>
  <defs>
    <linearGradient id="screen" x1="40" y1="44" x2="210" y2="210" gradientUnits="userSpaceOnUse">
      <stop offset="0" stop-color="#4cc9f0"/>
      <stop offset="0.48" stop-color="#4361ee"/>
      <stop offset="1" stop-color="#2b2d42"/>
    </linearGradient>
    <linearGradient id="accent" x1="66" y1="54" x2="194" y2="178" gradientUnits="userSpaceOnUse">
      <stop offset="0" stop-color="#98f5e1"/>
      <stop offset="1" stop-color="#f9c74f"/>
    </linearGradient>
    <filter id="shadow" x="-20%" y="-20%" width="140%" height="150%">
      <feDropShadow dx="0" dy="10" stdDeviation="12" flood-color="#1d2333" flood-opacity="0.28"/>
    </filter>
  </defs>
  <rect width="256" height="256" rx="56" fill="#f6f8fb"/>
  <g filter="url(#shadow)">
    <rect x="38" y="48" width="180" height="122" rx="18" fill="url(#screen)"/>
    <rect x="54" y="64" width="148" height="88" rx="10" fill="#101624" opacity="0.58"/>
    <path d="M96 197h64" fill="none" stroke="#2b2d42" stroke-width="14" stroke-linecap="round"/>
    <path d="M128 170v27" fill="none" stroke="#2b2d42" stroke-width="14" stroke-linecap="round"/>
  </g>
  <path d="M92 116h58" fill="none" stroke="url(#accent)" stroke-width="13" stroke-linecap="round"/>
  <path d="M134 92l30 24-30 24" fill="none" stroke="url(#accent)" stroke-width="13" stroke-linecap="round" stroke-linejoin="round"/>
  <path d="M82 86a52 52 0 0 1 92 0" fill="none" stroke="#98f5e1" stroke-width="10" stroke-linecap="round" opacity="0.92"/>
  <path d="M69 69a74 74 0 0 1 118 0" fill="none" stroke="#4361ee" stroke-width="8" stroke-linecap="round" opacity="0.5"/>
  <circle cx="196" cy="64" r="23" fill="#ef476f"/>
  <path d="M196 52v14" fill="none" stroke="#fff" stroke-width="7" stroke-linecap="round"/>
  <path d="M186 67a13 13 0 1 0 20 0" fill="none" stroke="#fff" stroke-width="7" stroke-linecap="round"/>
</svg>
